<?xml version="1.0" encoding="UTF-8"?>
<svg version="1.1" xmlns="http://www.w3.org/2000/svg" width="1024" height="1024">
<path d="M0 0 C337.92 0 675.84 0 1024 0 C1024 337.92 1024 675.84 1024 1024 C686.08 1024 348.16 1024 0 1024 C0 686.08 0 348.16 0 0 Z " fill="#191818" transform="translate(0,0)"/>
<path d="M0 0 C1.30893723 0.00131424 1.30893723 0.00131424 2.64431763 0.00265503 C51.61605438 0.16404202 104.35097811 17.10735164 139.5 52.375 C144.56221561 57.55999632 149.49844804 62.82209629 153.6875 68.75 C155.68763632 71.54557958 157.70646115 73.43309642 160.5 75.4375 C177.14389224 87.38453629 182.20936526 110.26141374 185.5 129.375 C188.09892306 147.09942335 187.84330318 165.07993155 187.81567383 182.94799805 C187.81106182 186.1750286 187.81790751 189.40168048 187.83618164 192.62866211 C187.95666307 214.07000726 187.0602943 235.07687048 184.5 256.375 C185.27867432 256.36436523 186.05734863 256.35373047 186.85961914 256.34277344 C193.26449814 256.42094672 199.67846564 259.28717739 204.5 263.375 C215.163383 275.48822894 217.33930816 291.22747976 216.67919922 306.87304688 C214.82922179 332.70215947 208.1853689 364.31667065 188.25 382.5 C176.07268258 392.375 176.07268258 392.375 171.5 392.375 C171.44158936 392.97723389 171.38317871 393.57946777 171.32299805 394.19995117 C166.43883804 443.88034218 155.36239977 493.03948883 124.5 533.375 C123.79488281 534.30441406 123.08976562 535.23382812 122.36328125 536.19140625 C96.04839786 569.60790327 58.08443714 588.8062223 16.125 593.94140625 C-22.86392295 598.04768643 -65.03533395 586.9373497 -95.91650391 562.66357422 C-100.13579804 559.23011223 -104.12545023 555.57431773 -108.03222656 551.79150391 C-109.50492724 550.37024487 -110.99742498 548.97221558 -112.4921875 547.57421875 C-125.70246278 535.02445724 -135.13073184 520.46050821 -143.5 504.375 C-144.14299575 503.16914634 -144.78620964 501.96340896 -145.4296875 500.7578125 C-152.42920297 487.28763384 -157.81179038 473.09773064 -161.5 458.375 C-161.68771973 457.63991211 -161.87543945 456.90482422 -162.06884766 456.14746094 C-165.77450135 441.4619822 -168.15391846 426.63861204 -170.38671875 411.67578125 C-170.58136719 410.43183594 -170.77601563 409.18789063 -170.9765625 407.90625 C-171.30828512 405.66836008 -171.59520106 403.4229894 -171.8203125 401.171875 C-172.38518093 395.98435988 -172.38518093 395.98435988 -175.02709961 391.64086914 C-176.98912494 390.15405554 -178.97447892 388.94648495 -181.125 387.75 C-182.58879746 386.8407697 -184.04720799 385.92280736 -185.5 384.99609375 C-186.19609375 384.55507324 -186.8921875 384.11405273 -187.609375 383.65966797 C-205.41331191 371.56200319 -210.41802206 345.9815434 -214.5 326.375 C-214.74878906 325.22 -214.99757813 324.065 -215.25390625 322.875 C-216.68134285 314.88934073 -216.76295375 306.84465812 -216.875 298.75 C-216.90118408 297.61739746 -216.92736816 296.48479492 -216.9543457 295.31787109 C-216.97385663 285.38174902 -215.04179482 275.97361602 -209.0625 267.8125 C-208.50691406 267.02746094 -207.95132812 266.24242187 -207.37890625 265.43359375 C-204.02274126 261.75646496 -200.22249522 260.09295958 -195.5 258.75 C-194.675 258.51023437 -193.85 258.27046875 -193 258.0234375 C-190.51277498 257.37831351 -188.02424054 256.85280267 -185.5 256.375 C-185.995 255.385 -185.995 255.385 -186.5 254.375 C-187.80009646 244.24001045 -187.66329069 233.97958734 -187.66796875 223.78125 C-187.67119456 222.10135878 -187.67455954 220.42146783 -187.67805481 218.74157715 C-187.68400398 215.23526358 -187.68589921 211.7289745 -187.68530273 208.22265625 C-187.68522169 204.67182295 -187.69213596 201.12111924 -187.70581055 197.5703125 C-187.85230214 158.91624615 -187.85230214 158.91624615 -185.5 142.375 C-185.25842163 140.61687988 -185.25842163 140.61687988 -185.01196289 138.82324219 C-178.6552841 97.38474168 -156.71061386 62.56468534 -123.125 37.75 C-111.55204808 29.37013934 -99.40859443 22.45283913 -86.5 16.375 C-85.49324219 15.900625 -84.48648438 15.42625 -83.44921875 14.9375 C-71.65932477 9.71928966 -59.02647817 6.775371 -46.4375 4.1875 C-45.69628906 4.03273193 -44.95507812 3.87796387 -44.19140625 3.71850586 C-29.52282419 0.84142369 -14.91485201 -0.03692281 0 0 Z " fill="#DAA622" transform="translate(512.5,114.625)"/>
<path d="M0 0 C0.33 0 0.66 0 1 0 C1.2333606 1.01815796 1.2333606 1.01815796 1.47143555 2.05688477 C14.388002 58.06027289 43.46291842 101.69997957 83.77124023 141.90161133 C86.1969663 144.32194526 88.61725798 146.7476222 91.03710938 149.17382812 C92.60124175 150.73730012 94.16568406 152.30046212 95.73046875 153.86328125 C96.44212692 154.57696365 97.1537851 155.29064606 97.88700867 156.0259552 C101.90748447 160.02792023 106.02571981 163.85380136 110.33129883 167.54804993 C112.26467775 169.2302982 114.04892479 171.01643127 115.8125 172.875 C119.63812546 176.75272542 123.74604874 180.15612684 127.9921875 183.5625 C131.8621243 186.69865658 135.64312202 189.93440721 139.40893555 193.19458008 C145.04163514 198.58080386 145.04163514 198.58080386 152.0234375 201.0625 C154.96133847 199.48323308 157.24146075 197.29447803 159.625 195 C160.70140101 193.98783239 161.77822974 192.97611945 162.85546875 191.96484375 C163.38833496 191.46065918 163.92120117 190.95647461 164.47021484 190.43701172 C166.5936812 188.44232245 168.76341145 186.50174429 170.9375 184.5625 C174.82370803 181.07551719 178.66834444 177.54659197 182.5 174 C189.2141687 167.78767866 195.9685761 161.62380351 202.875 155.625 C206.89101644 152.13245617 210.80172791 148.52890459 214.70068359 144.90673828 C216.964734 142.8144694 219.2446915 140.80661478 221.6640625 138.89453125 C223.79249732 137.16829231 225.44670363 135.47827581 227.1875 133.375 C229.94146255 130.14312637 232.83512815 127.15196418 235.875 124.1875 C251.7374278 108.37270712 263.80904525 88.85125166 274 69 C274.47679199 68.0723584 274.95358398 67.1447168 275.44482422 66.18896484 C283.23391191 50.86850742 289.59487201 35.30888786 295 19 C295.2475 18.25637207 295.495 17.51274414 295.75 16.74658203 C297.58314792 11.18030475 299.11692291 5.79943894 300 0 C302.33368861 2.16284819 303.91231943 4.31665191 305.49609375 7.0703125 C306.20137207 8.27941284 306.20137207 8.27941284 306.92089844 9.51293945 C307.67161621 10.80590942 307.67161621 10.80590942 308.4375 12.125 C321.1104969 33.54034206 330.56203091 45.85979803 354 55 C356.86796884 56.12692327 359.73473132 57.25690497 362.6015625 58.38671875 C364.17968025 59.00840057 365.7578054 59.63006359 367.3359375 60.25170898 C368.14095703 60.56888885 368.94597656 60.88606873 369.77539062 61.21286011 C371.43376569 61.86602117 373.09229602 62.51878816 374.75097656 63.1711731 C470.0108553 100.64506835 470.0108553 100.64506835 493 117 C494.1348489 117.77817241 495.27031062 118.55545155 496.40625 119.33203125 C503.75600334 124.40998877 510.54221234 129.80662569 517 136 C518.39798828 137.28583984 518.39798828 137.28583984 519.82421875 138.59765625 C554.39408862 171.04681511 568.02521677 219.86906038 576.125 265 C576.25369476 265.71303284 576.38238953 266.42606567 576.51498413 267.16070557 C579.0153222 281.10649614 581 294.78917636 581 309 C296.87 309 12.74 309 -280 309 C-279.32801864 298.24829832 -278.46897988 287.84804698 -276.8125 277.25 C-276.70428925 276.54677612 -276.59607849 275.84355225 -276.48458862 275.11901855 C-267.59669129 217.66174157 -249.62253671 158.75810221 -201.01025391 122.51660156 C-180.6605024 107.87252355 -157.74904783 97.8063956 -134.87426758 87.81964111 C-133.014444 87.00631655 -131.15635786 86.18915396 -129.29882812 85.37060547 C-115.32164414 79.21313397 -101.279537 73.23854755 -87.125 67.5 C-86.46903839 67.23353668 -85.81307678 66.96707336 -85.13723755 66.6925354 C-78.25069706 63.89664037 -71.35451105 61.12945283 -64.42752075 58.43515015 C-61.52112718 57.30230036 -58.61994469 56.15644453 -55.71917725 55.00927734 C-54.34823823 54.47130635 -52.97480617 53.93963551 -51.59869385 53.41503906 C-32.21751295 46.02418056 -22.38539433 32.94303757 -11.125 16.0625 C-9.65022592 13.86467873 -8.17266039 11.66874984 -6.6953125 9.47265625 C-6.05609863 8.51625244 -5.41688477 7.55984863 -4.75830078 6.57446289 C-3.22592568 4.3307951 -1.70143418 2.11852576 0 0 Z " fill="#D9A521" transform="translate(362,625)"/>
<path d="M0 0 C12.22502502 -0.48756287 31.52763143 0.87793946 41.72973633 8.38208008 C51.88783835 18.93896435 56.09432965 36.95656943 60.890625 50.48291016 C64.02668813 59.29726252 67.29175037 67.98364574 71.2434082 76.46972656 C71.55882065 77.15279877 71.87423309 77.83587097 72.19920349 78.53964233 C74.84110795 84.06296445 78.18395822 88.67535096 81.98168945 93.48144531 C88.98991826 102.43640434 93.39494037 111.62947285 93.09106445 123.17675781 C89.57087099 123.35238471 86.0518151 123.45804247 82.52856445 123.55175781 C81.53791992 123.60203125 80.54727539 123.65230469 79.52661133 123.70410156 C74.4791234 123.80471594 71.11486801 123.78147974 67.2277832 120.34863281 C66.68935791 119.80319824 66.15093262 119.25776367 65.59619141 118.69580078 C53.46972567 106.45721687 28.77916568 104.13994152 12.40356445 103.98925781 C-5.08515614 104.04483637 -22.89599787 106.96200109 -36.90893555 118.17675781 C-39.18550477 120.60786237 -41.37651932 123.04104187 -43.44799805 125.64941406 C-45.90893555 127.17675781 -45.90893555 127.17675781 -49.65893555 126.43847656 C-50.44349121 126.22054443 -51.22804688 126.0026123 -52.03637695 125.77807617 C-57.62342432 124.60852852 -63.39486401 124.88303494 -69.08276367 124.91601562 C-71.27250072 124.92670201 -73.46141143 124.91609117 -75.65112305 124.90332031 C-82.88043452 124.89994208 -89.67296863 125.18212353 -96.70874023 127.07763672 C-98.90893555 127.17675781 -98.90893555 127.17675781 -101.02001953 125.67895508 C-102.28566198 124.33203124 -103.51149702 122.94727892 -104.7097168 121.54003906 C-116.63215319 108.72818468 -135.9283063 104.9379256 -152.6394043 103.95800781 C-173.49397627 103.45599204 -194.41003968 107.36103809 -211.90893555 119.17675781 C-212.63209961 119.9025 -213.35526367 120.62824219 -214.1003418 121.37597656 C-218.34630853 124.09835579 -222.29557152 123.60777896 -227.22143555 123.42675781 C-228.1527832 123.40871094 -229.08413086 123.39066406 -230.04370117 123.37207031 C-232.33317752 123.3251067 -234.62051739 123.25945256 -236.90893555 123.17675781 C-235.88810221 121.57259115 -234.86726888 119.96842448 -233.84643555 118.36425781 C-232.88350586 116.84251953 -232.88350586 116.84251953 -231.90112305 115.29003906 C-230.67752763 113.37787132 -229.43649185 111.47656659 -228.16674805 109.59472656 C-218.58652112 95.22438617 -213.09143837 79.52920201 -207.90893555 63.17675781 C-196.09562595 26.28013102 -196.09562595 26.28013102 -179.8112793 17.42285156 C-158.37043619 8.21742902 -132.56598409 10.9312136 -109.78735352 10.69995117 C-85.51078756 10.44293415 -62.35605747 8.55433443 -38.5 4.13305664 C-25.58635005 1.75719757 -13.11454119 0.59302528 0 0 Z " fill="#191818" transform="translate(584.908935546875,241.8232421875)"/>
<path d="M0 0 C1.57080243 1.57080243 1.38587279 3.31199964 1.6484375 5.48828125 C1.76493652 6.41664795 1.88143555 7.34501465 2.00146484 8.30151367 C2.12473145 9.29513916 2.24799805 10.28876465 2.375 11.3125 C5.19967862 32.79003507 11.92394777 55.30198437 29.82421875 69.19140625 C43.74388836 78.86923032 60.02481524 83.79888819 77.01953125 81.56640625 C92.09317987 78.81868657 106.90135524 72.54999002 116.57421875 60.109375 C128.2939764 42.77055547 132.81212798 24.78574215 133.65625 3.95703125 C133.7696875 2.98121094 133.883125 2.00539063 134 1 C136.76452033 -0.38226016 139.0461363 -0.09525387 142.125 -0.0625 C143.22070312 -0.05347656 144.31640625 -0.04445313 145.4453125 -0.03515625 C146.28835938 -0.02355469 147.13140625 -0.01195312 148 0 C150.12614148 4.25585888 150.12881392 7.83120819 149.7421875 12.45703125 C149.689487 13.19323196 149.6367865 13.92943268 149.58248901 14.6879425 C149.40261245 17.12663354 149.2031551 19.56314339 149 22 C148.93204224 22.84222107 148.86408447 23.68444214 148.79406738 24.55218506 C142.7214645 99.40605947 142.7214645 99.40605947 128 125 C127.4225 126.00417969 126.845 127.00835937 126.25 128.04296875 C117.13882305 142.99626611 100.45597893 165.66554785 84 173 C83.91363281 172.05640625 83.82726562 171.1128125 83.73828125 170.140625 C82.41381313 158.03814565 79.83395113 146.16974402 70 138 C63.61815832 134.06059156 58.0511086 132.00955461 50.56933594 131.71069336 C38.10370672 131.19447865 28.81079141 129.22137066 18.49609375 121.7421875 C13.34239422 118.14508267 8.06008078 118.56814845 2 119 C-0.57445488 119.48947094 -3.12777786 120.00774315 -5.6875 120.5625 C-15.15653196 122.55795073 -24.92880345 122.57487296 -34.3125 119.9375 C-40.78253487 118.29257588 -46.12146793 117.54172805 -52.25390625 120.6484375 C-54.004085 121.6959254 -55.7304023 122.77693893 -57.45776367 123.86157227 C-65.29683294 128.64546883 -73.98943937 130.19732517 -82.9609375 131.65625 C-93.38395196 133.43217944 -102.03815592 136.36732836 -108.4375 145.25 C-113.64636808 154.14722842 -115.64221253 162.74938893 -116 173 C-139.25571612 162.50995144 -158.73250534 136.13853386 -167.65234375 112.82421875 C-174.50385497 93.80747347 -177.79584988 74.01796897 -180 54 C-180.13148438 52.8342041 -180.26296875 51.6684082 -180.3984375 50.46728516 C-181.75722425 38.33274263 -183.06020521 26.19363557 -183.75 14 C-183.79463379 13.24750977 -183.83926758 12.49501953 -183.88525391 11.71972656 C-184.06092864 8.00719159 -184.17563259 4.55302292 -183 1 C-179.28424249 -1.47717167 -177.40013262 -1.30345742 -173 -1 C-171.31785521 -0.37341312 -169.6472692 0.28674942 -168 1 C-167.96036133 1.58789307 -167.92072266 2.17578613 -167.87988281 2.78149414 C-166.14388172 27.3708466 -161.29943679 50.2036813 -142.2890625 67.4609375 C-128.77745937 78.36440276 -112.2736674 83.32301617 -95.0078125 81.72265625 C-77.82619149 79.55950253 -61.98506269 71.60836124 -51 58 C-39.44546973 41.08684699 -34.99166435 21.27782618 -34 1 C-23.33683664 -3.56992715 -11.0438154 -3.2937695 0 0 Z " fill="#191818" transform="translate(529,383)"/>
<path d="M0 0 C6.32928586 5.87432662 9.788956 12.60522356 10.23828125 21.24609375 C10.5374072 38.3598373 6.75576623 54.3614927 -4.33984375 67.90234375 C-13.95484001 77.75608709 -26.96683501 84.35306972 -40.74755859 84.68310547 C-55.57360025 84.83527548 -65.95263463 82.51323001 -77.96484375 73.33984375 C-78.78984375 72.72238281 -79.61484375 72.10492188 -80.46484375 71.46875 C-91.9743628 61.66767518 -97.52660954 46.00211064 -98.96484375 31.33984375 C-100.22097332 12.24241618 -100.22097332 12.24241618 -94.96484375 4.33984375 C-94.42859375 3.45296875 -93.89234375 2.56609375 -93.33984375 1.65234375 C-70.93015766 -20.16761376 -23.00073616 -19.43402161 0 0 Z " fill="#191818" transform="translate(471.96484375,369.66015625)"/>
<path d="M0 0 C5.56611489 4.90572838 8.53042971 10.50351209 9.1640625 17.92041016 C10.20457493 36.83605898 6.89066282 55.48045168 -6 70 C-6.49886719 70.61488281 -6.99773437 71.22976563 -7.51171875 71.86328125 C-14.27087607 79.54182017 -26.18799458 85.26586968 -36.30957031 86.21704102 C-53.57648972 87.03471797 -67.26814431 84.54651003 -80.9921875 73.37890625 C-90.63750291 64.44091397 -94.67157047 53.3371954 -98 41 C-98.17958252 40.34974854 -98.35916504 39.69949707 -98.54418945 39.02954102 C-100.67375549 29.54744009 -100.23861365 17.31378803 -95 9 C-86.31294239 -3.18387321 -74.71523365 -8.50154906 -60.30883789 -11.12646484 C-40.48349016 -14.33014118 -16.4428504 -12.39171335 0 0 Z " fill="#191818" transform="translate(642,368)"/>
<path d="M0 0 C0.89200639 -0.01836599 1.78401278 -0.03673199 2.70304966 -0.05565453 C4.37731209 -0.09031211 6.05136828 -0.14026206 7.72455502 -0.20955849 C13.68884053 -0.30429039 18.37643485 1.12855642 23.53341675 4.14959717 C27.24009395 7.76586761 27.81974547 10.83200925 28.03341675 15.83709717 C27.47010493 29.29030888 20.42564171 39.52043423 10.974823 48.61053467 C-2.49550998 59.91636796 -17.59244131 61.2716983 -34.55252075 61.38787842 C-36.25887192 61.39998604 -36.25887192 61.39998604 -37.99969482 61.41233826 C-40.39489247 61.42610282 -42.7901091 61.43685869 -45.18533325 61.44476318 C-47.61931157 61.45630248 -50.0532642 61.4767847 -52.48709106 61.50628662 C-56.0299067 61.54914712 -59.57197745 61.56515452 -63.11502075 61.57537842 C-64.18932343 61.59288651 -65.2636261 61.61039459 -66.3704834 61.62843323 C-79.76181294 61.59044206 -91.38457221 55.96014299 -101.21658325 46.96209717 C-108.6797346 39.0133914 -113.76419946 29.02692189 -113.71658325 18.08709717 C-113.7217395 16.89987061 -113.72689575 15.71264404 -113.73220825 14.48944092 C-113.39993759 10.31162599 -112.90136762 7.40176686 -109.66960144 4.58132935 C-100.79154438 -1.18848229 -86.37856443 0.79727261 -76.1892395 0.73553467 C-74.2126235 0.71676957 -72.23601506 0.69719245 -70.25941467 0.67684937 C-65.07062421 0.62572866 -59.88180697 0.58605288 -54.69290161 0.54870605 C-49.47351293 0.50893334 -44.25424098 0.45745276 -39.03494263 0.40740967 C-18.94271041 0.22080714 -18.94271041 0.22080714 -13.28361607 0.19995689 C-8.85290546 0.18356086 -4.42900625 0.12788544 0 0 Z " fill="#191818" transform="translate(555.4665832519531,545.8504028320313)"/>
<path d="M0 0 C12.07208257 -0.57083403 12.07208257 -0.57083403 16 3 C22.5836167 10.9390672 23.89524938 20.67071853 23.22460938 30.69873047 C20.81083997 55.42937224 15.57318268 85.04705325 -4.3125 101.8125 C-5.6428125 102.8953125 -5.6428125 102.8953125 -7 104 C-8.42630622 101.14738756 -7.9218926 98.97370286 -7.6953125 95.79296875 C-7.60571322 94.43289872 -7.51671736 93.07278884 -7.42822266 91.71264648 C-7.37885559 90.97891815 -7.32948853 90.24518982 -7.27862549 89.48922729 C-6.44908757 77.06049501 -5.92126721 64.66001807 -5.78125 52.203125 C-5.76665741 51.0243428 -5.75206482 49.84556061 -5.73703003 48.63105774 C-5.66764998 42.75083521 -5.62191949 36.87156957 -5.60595703 30.9909668 C-5.58434852 28.79475222 -5.56207937 26.59854402 -5.5390625 24.40234375 C-5.54417847 23.41393494 -5.54929443 22.42552612 -5.55456543 21.40716553 C-5.44452453 13.60606389 -3.4861422 6.9722844 0 0 Z " fill="#181718" transform="translate(693,387)"/>
<path d="M0 0 C1.21236328 0.01353516 1.21236328 0.01353516 2.44921875 0.02734375 C3.37154297 0.04474609 3.37154297 0.04474609 4.3125 0.0625 C7.90904127 6.09540794 9.37561957 10.14504153 9.68554688 17.23852539 C9.74230591 18.49246597 9.79906494 19.74640656 9.85754395 21.03834534 C9.91555446 22.41227773 9.97345327 23.78621485 10.03125 25.16015625 C10.09435545 26.59192846 10.15779771 28.02368586 10.22155762 29.45542908 C10.38925031 33.24413908 10.55185962 37.03305177 10.71356201 40.82202148 C10.84281887 43.83073209 10.97571768 46.83927606 11.10882568 49.84781837 C11.92267861 68.24997059 12.66197519 86.65378668 13.3125 105.0625 C12.04145934 104.14630494 10.77553155 103.22301482 9.51171875 102.296875 C8.45343872 101.52682129 8.45343872 101.52682129 7.3737793 100.74121094 C-8.9572757 87.44115952 -14.21903799 58.71356589 -16.6875 39.0625 C-17.04668319 34.7248686 -17.21001092 30.41419288 -17.25 26.0625 C-17.26466309 25.09046631 -17.27932617 24.11843262 -17.29443359 23.11694336 C-17.18056217 15.2371782 -15.2783829 9.09572876 -10.125 3.0625 C-6.7301111 0.27695014 -4.25026935 -0.06159811 0 0 Z " fill="#191718" transform="translate(325.6875,386.9375)"/>
<path d="M0 0 C3.24598599 2.67316493 4.85385338 4.80237364 5.4453125 9.05078125 C5.70978233 14.86030187 5.07876046 19.3370209 1.125 23.75 C-3.02004772 27.59270306 -6.85596126 29.08213107 -12.5 29.3125 C-17.32259898 29.0787175 -20.21296582 28.04583076 -23.875 24.75 C-27.24412222 20.94458858 -27.3867246 18.22834119 -27.2265625 13.28515625 C-26.52260308 8.20882666 -24.16811467 5.00908533 -20.5 1.4375 C-13.7785024 -2.88346275 -7.27838004 -3.16451306 0 0 Z " fill="#181718" transform="translate(522.875,866.25)"/>
<path d="M0 0 C0.33 0 0.66 0 1 0 C1 13.53 1 27.06 1 41 C-12.53 41 -26.06 41 -40 41 C-36.77794772 39.38897386 -33.66489916 38.09649079 -30.3125 36.8125 C-17.71232801 31.5611525 -8.22889841 22.19948407 -2.96484375 9.59765625 C-1.78548854 6.42246916 -0.80417774 3.28981803 0 0 Z " fill="#000000" transform="translate(1023,983)"/>
<path d="M0 0 C1.61102614 3.22205228 2.90350921 6.33510084 4.1875 9.6875 C10.00518242 23.67035072 20.29186109 32.13044121 34 38 C36.34031422 38.82205995 38.57847506 39.44965342 41 40 C41 40.33 41 40.66 41 41 C27.47 41 13.94 41 0 41 C0 27.47 0 13.94 0 0 Z " fill="#000000" transform="translate(0,983)"/>
<path d="M0 0 C13.53 0 27.06 0 41 0 C41 13.53 41 27.06 41 41 C39.38897386 37.77794772 38.09649079 34.66489916 36.8125 31.3125 C31.24581644 17.93292723 21.07413228 8.92214675 8 3 C5.31714693 2.11698222 2.78246519 1.52499343 0 1 C0 0.67 0 0.34 0 0 Z " fill="#000000" transform="translate(983,0)"/>
<path d="M0 0 C13.53 0 27.06 0 41 0 C38.07773022 1.46113489 35.417555 2.59237841 32.375 3.6875 C19.09294101 9.00032359 10.21266382 18.37621439 4.1875 31.1796875 C2.81688932 34.43488787 1.78197084 37.55932828 1 41 C0.67 41 0.34 41 0 41 C0 27.47 0 13.94 0 0 Z " fill="#000000" transform="translate(0,0)"/>
<path d="M0 0 C0.33 0.99 0.66 1.98 1 3 C-5.04032769 7.25587582 -9.66875086 7.50835609 -16.9375 7.25 C-17.90751953 7.23195313 -18.87753906 7.21390625 -19.87695312 7.1953125 C-22.25234894 7.14850667 -24.62563844 7.08296385 -27 7 C-22.98879933 4.73938257 -19.67133253 4.9567145 -15.1875 5.1875 C-10.40342837 5.33403913 -6.50095061 5.44502963 -2.5 2.5 C-1.675 1.675 -0.85 0.85 0 0 Z " fill="#E0B220" transform="translate(375,359)"/>
<path d="M0 0 C0.33 0.66 0.66 1.32 1 2 C0.67 2.66 0.34 3.32 0 4 C4.62 4 9.24 4 14 4 C14 4.33 14 4.66 14 5 C8.06 5.33 2.12 5.66 -4 6 C-2.68 4.02 -1.36 2.04 0 0 Z " fill="#0E0B17" transform="translate(352,359)"/>
<path d="M0 0 C0.99 0.33 1.98 0.66 3 1 C-0.43361902 4.63559661 -3.7973607 7.36113346 -8 10 C-6.34908222 5.70761377 -3.26245434 3.1206085 0 0 Z " fill="#0F0D18" transform="translate(557,366)"/>
<path d="M0 0 C0.68359375 1.640625 0.68359375 1.640625 1 4 C-0.21484375 6.796875 -0.21484375 6.796875 -1.9375 9.75 C-2.50339844 10.73484375 -3.06929688 11.7196875 -3.65234375 12.734375 C-4.09707031 13.48203125 -4.54179688 14.2296875 -5 15 C-6 12 -6 12 -4.78515625 9.08203125 C-4.21667969 8.00308594 -3.64820312 6.92414062 -3.0625 5.8125 C-2.49660156 4.72582031 -1.93070312 3.63914062 -1.34765625 2.51953125 C-0.90292969 1.68808594 -0.45820312 0.85664062 0 0 Z " fill="#E7B821" transform="translate(114,804)"/>
<path d="M0 0 C0 0.99 0 1.98 0 3 C-2.64 3 -5.28 3 -8 3 C-8 2.34 -8 1.68 -8 1 C-5.29120665 -0.35439668 -2.99066732 -0.06501451 0 0 Z " fill="#CE9F22" transform="translate(515,249)"/>
</svg>
